<svg width="32" height="32" viewBox="0 0 32 32" fill="none" xmlns="http://www.w3.org/2000/svg">
<rect width="32" height="32" fill="#E5E5E5"/>
<g clip-path="url(#clip0_0_1)">
<rect width="411" height="937" transform="translate(-117 -886)" fill="#121212"/>
<path d="M-117 6C-117 -7.80712 -105.807 -19 -92 -19H269C282.807 -19 294 -7.80712 294 6V51H-117V6Z" fill="#282828"/>
<g filter="url(#filter0_f_0_1)">
<mask id="path-2-inside-1_0_1" fill="white">
<path d="M16.0112 1C7.7208 1 1.01123 7.70881 1.01123 16C1.01123 24.2904 7.72004 31 16.0112 31C24.3017 31 31.0112 24.2912 31.0112 16C31.0112 7.70957 24.3024 1 16.0112 1ZM16.0112 29C8.84305 29 3.01121 23.1682 3.01121 16C3.01121 8.83176 8.84305 2.99998 16.0112 2.99998C23.1794 2.99998 29.0112 8.83182 29.0112 16C29.0112 23.1682 23.1794 29 16.0112 29Z"/>
<path d="M22.7698 15H17.0114V9.24149C17.0114 8.68925 16.5636 8.24147 16.0113 8.24147C15.459 8.24147 15.0113 8.68919 15.0113 9.24149V15H9.25284C8.70059 15 8.25282 15.4477 8.25282 16C8.25282 16.5523 8.70054 17 9.25284 17H15.0113V22.7585C15.0113 23.3107 15.459 23.7585 16.0113 23.7585C16.5636 23.7585 17.0114 23.3108 17.0114 22.7585V17H22.7698C23.3221 17 23.7699 16.5523 23.7699 16C23.7699 15.4477 23.3221 15 22.7698 15Z"/>
</mask>
<path d="M16.0112 1C7.7208 1 1.01123 7.70881 1.01123 16C1.01123 24.2904 7.72004 31 16.0112 31C24.3017 31 31.0112 24.2912 31.0112 16C31.0112 7.70957 24.3024 1 16.0112 1ZM16.0112 29C8.84305 29 3.01121 23.1682 3.01121 16C3.01121 8.83176 8.84305 2.99998 16.0112 2.99998C23.1794 2.99998 29.0112 8.83182 29.0112 16C29.0112 23.1682 23.1794 29 16.0112 29Z" stroke="white" stroke-width="8" mask="url(#path-2-inside-1_0_1)"/>
<path d="M22.7698 15H17.0114V9.24149C17.0114 8.68925 16.5636 8.24147 16.0113 8.24147C15.459 8.24147 15.0113 8.68919 15.0113 9.24149V15H9.25284C8.70059 15 8.25282 15.4477 8.25282 16C8.25282 16.5523 8.70054 17 9.25284 17H15.0113V22.7585C15.0113 23.3107 15.459 23.7585 16.0113 23.7585C16.5636 23.7585 17.0114 23.3108 17.0114 22.7585V17H22.7698C23.3221 17 23.7699 16.5523 23.7699 16C23.7699 15.4477 23.3221 15 22.7698 15Z" stroke="white" stroke-width="8" mask="url(#path-2-inside-1_0_1)"/>
</g>
</g>
<defs>
<filter id="filter0_f_0_1" x="0.914008" y="0.902778" width="30.1944" height="30.1944" filterUnits="userSpaceOnUse" color-interpolation-filters="sRGB">
<feFlood flood-opacity="0" result="BackgroundImageFix"/>
<feBlend mode="normal" in="SourceGraphic" in2="BackgroundImageFix" result="shape"/>
<feGaussianBlur stdDeviation="0.0486111" result="effect1_foregroundBlur_0_1"/>
</filter>
<clipPath id="clip0_0_1">
<rect width="411" height="937" fill="white" transform="translate(-117 -886)"/>
</clipPath>
</defs>
</svg>
