<svg width="21" height="24" viewBox="0 0 21 24" fill="none" xmlns="http://www.w3.org/2000/svg">
<path d="M19.6782 19.0994C19.6035 19.0536 19.0418 18.6816 18.4792 17.5564C17.4462 15.49 17.2294 12.5792 17.2294 10.5012C17.2294 10.4921 17.2292 10.4832 17.2288 10.4742C17.2176 7.72781 15.4776 5.36034 12.9876 4.29811V2.67356C12.9876 1.19934 11.7208 0 10.1635 0H9.92948C8.37226 0 7.10537 1.19934 7.10537 2.67356V4.29802C4.6071 5.36367 2.86364 7.74323 2.86364 10.5012C2.86364 12.5792 2.6468 15.49 1.61376 17.5564C1.05129 18.6816 0.489509 19.0535 0.414817 19.0994C0.100277 19.2369 -0.0548113 19.5548 0.0175498 19.8768C0.0906052 20.2021 0.412287 20.4263 0.763578 20.4263H6.21655C6.247 22.4017 7.95282 24 10.0465 24C12.1402 24 13.8461 22.4017 13.8765 20.4263H19.3295C19.6807 20.4263 20.0025 20.2021 20.0755 19.8768C20.1478 19.5548 19.9927 19.2369 19.6782 19.0994ZM8.59331 2.67356C8.59331 1.97602 9.19273 1.40855 9.92953 1.40855H10.1636C10.9004 1.40855 11.4998 1.97602 11.4998 2.67356V3.84155C11.0302 3.74981 10.5441 3.70153 10.0463 3.70153C9.54868 3.70153 9.06274 3.74977 8.59336 3.84141V2.67356H8.59331ZM10.0465 22.5915C8.77324 22.5915 7.73464 21.625 7.70444 20.4264H12.3886C12.3584 21.625 11.3198 22.5915 10.0465 22.5915ZM13.0421 19.0177C13.042 19.0177 2.45903 19.0177 2.45903 19.0177C2.58773 18.8282 2.71872 18.6135 2.84891 18.371C3.84599 16.5127 4.35158 13.8649 4.35158 10.5012C4.35158 7.5285 6.90624 5.11008 10.0463 5.11008C13.1863 5.11008 15.741 7.5285 15.741 10.5035C15.741 10.5122 15.7411 10.5208 15.7415 10.5294C15.7443 13.8797 16.2498 16.518 17.2442 18.371C17.3743 18.6136 17.5054 18.8282 17.634 19.0177H13.0421Z" fill="#EE2328"/>
</svg>
