<svg width="39" height="32" viewBox="0 0 39 32" fill="none" xmlns="http://www.w3.org/2000/svg">
<g filter="url(#filter0_f_384_467)">
<mask id="path-1-inside-1_384_467" fill="white">
<path d="M3.36021 5.42338C5.39887 4.5763 8.3221 3.66284 11.1647 3.37896C14.2285 3.07218 16.8269 3.52319 18.3334 5.10057V27.4129C16.1796 26.1995 13.4499 26.0324 10.9321 26.2842C8.21384 26.5589 5.47259 27.3396 3.36021 28.1409V5.42338ZM20.637 5.10057C22.1435 3.52319 24.742 3.07218 27.8057 3.37896C30.6483 3.66284 33.5716 4.5763 35.6102 5.42338V28.1409C33.4955 27.3396 30.7566 26.5566 28.0384 26.2865C25.5183 26.0324 22.7908 26.1972 20.637 27.4129V5.10057ZM19.4852 3.03097C17.2162 1.09187 13.9267 0.803408 10.9321 1.10103C7.44444 1.4513 3.92459 2.63949 1.73159 3.63079C1.53037 3.72174 1.35973 3.86832 1.24005 4.05303C1.12037 4.23773 1.0567 4.45277 1.05664 4.67246V29.8556C1.05669 30.0472 1.1051 30.2356 1.19743 30.4037C1.28976 30.5718 1.42305 30.7142 1.5851 30.8179C1.74716 30.9215 1.93279 30.9831 2.125 30.997C2.31721 31.0109 2.50984 30.9766 2.68527 30.8973C4.71702 29.9815 7.99039 28.8804 11.1624 28.5621C14.4081 28.237 17.1287 28.7613 18.5868 30.5699C18.6947 30.7036 18.8315 30.8115 18.987 30.8856C19.1425 30.9598 19.3127 30.9983 19.4852 30.9983C19.6577 30.9983 19.8279 30.9598 19.9834 30.8856C20.1389 30.8115 20.2757 30.7036 20.3836 30.5699C21.8418 28.7613 24.5623 28.237 27.8057 28.5621C30.98 28.8804 34.2557 29.9815 36.2852 30.8973C36.4606 30.9766 36.6532 31.0109 36.8454 30.997C37.0376 30.9831 37.2233 30.9215 37.3853 30.8179C37.5474 30.7142 37.6807 30.5718 37.773 30.4037C37.8653 30.2356 37.9137 30.0472 37.9138 29.8556V4.67246C37.9137 4.45277 37.8501 4.23773 37.7304 4.05303C37.6107 3.86832 37.4401 3.72174 37.2388 3.63079C35.0458 2.63949 31.526 1.4513 28.0384 1.10103C25.0437 0.801119 21.7542 1.09187 19.4852 3.03097Z"/>
</mask>
<path d="M3.36021 5.42338L1.82541 1.72954L-0.639788 2.75384V5.42338H3.36021ZM11.1647 3.37896L11.5622 7.35916L11.5632 7.35906L11.1647 3.37896ZM18.3334 5.10057H22.3334V3.49729L21.2261 2.33785L18.3334 5.10057ZM18.3334 27.4129L16.3701 30.8979L22.3334 34.2573V27.4129H18.3334ZM10.9321 26.2842L10.534 22.3041L10.5298 22.3045L10.9321 26.2842ZM3.36021 28.1409H-0.639788V33.9363L4.77889 31.8809L3.36021 28.1409ZM20.637 5.10057L17.7444 2.33785L16.637 3.49729V5.10057H20.637ZM27.8057 3.37896L27.4072 7.35906L27.4082 7.35916L27.8057 3.37896ZM35.6102 5.42338H39.6102V2.75384L37.145 1.72954L35.6102 5.42338ZM35.6102 28.1409L34.1929 31.8814L39.6102 33.9341V28.1409H35.6102ZM28.0384 26.2865L27.6371 30.2663L27.6428 30.2669L28.0384 26.2865ZM20.637 27.4129H16.637V34.2637L22.6031 30.8963L20.637 27.4129ZM19.4852 3.03097L16.8865 6.07182L19.4852 8.29267L22.0839 6.07182L19.4852 3.03097ZM10.9321 1.10103L10.5365 -2.87937L10.5323 -2.87895L10.9321 1.10103ZM1.73159 3.63079L3.37912 7.27574L3.3792 7.2757L1.73159 3.63079ZM1.05664 4.67246L-2.94336 4.67134V4.67246H1.05664ZM1.05664 29.8556L-2.94336 29.8556L-2.94336 29.8567L1.05664 29.8556ZM2.68527 30.8973L1.04162 27.2506L1.03773 27.2523L2.68527 30.8973ZM11.1624 28.5621L10.7638 24.582L10.7631 24.5821L11.1624 28.5621ZM18.5868 30.5699L15.4728 33.0805L15.4744 33.0824L18.5868 30.5699ZM20.3836 30.5699L23.496 33.0824L23.4976 33.0805L20.3836 30.5699ZM27.8057 28.5621L28.2047 24.5821L28.2046 24.5821L27.8057 28.5621ZM36.2852 30.8973L37.9327 27.2523L37.9304 27.2513L36.2852 30.8973ZM37.9138 29.8556L41.9138 29.8567V29.8556H37.9138ZM37.9138 4.67246L41.9138 4.67246L41.9138 4.67134L37.9138 4.67246ZM37.2388 3.63079L35.5912 7.2757L35.5913 7.27574L37.2388 3.63079ZM28.0384 1.10103L28.4381 -2.87895L28.437 -2.87906L28.0384 1.10103ZM4.89501 9.11721C6.69047 8.37119 9.22165 7.5929 11.5622 7.35916L10.7672 -0.601242C7.42256 -0.26722 4.10728 0.781422 1.82541 1.72954L4.89501 9.11721ZM11.5632 7.35906C14.3089 7.08413 15.2617 7.67581 15.4408 7.86329L21.2261 2.33785C18.3921 -0.629432 14.148 -0.939766 10.7662 -0.601138L11.5632 7.35906ZM14.3334 5.10057V27.4129H22.3334V5.10057H14.3334ZM20.2967 23.9278C17.0872 22.1197 13.3737 22.02 10.534 22.3041L11.3301 30.2643C13.526 30.0447 15.2719 30.2792 16.3701 30.8979L20.2967 23.9278ZM10.5298 22.3045C7.3707 22.6238 4.27994 23.5139 1.94154 24.4009L4.77889 31.8809C6.66523 31.1653 9.05697 30.4941 11.3343 30.2639L10.5298 22.3045ZM7.36021 28.1409V5.42338H-0.639788V28.1409H7.36021ZM23.5296 7.86329C23.7087 7.67581 24.6615 7.08413 27.4072 7.35906L28.2042 -0.601138C24.8224 -0.939766 20.5784 -0.629432 17.7444 2.33785L23.5296 7.86329ZM27.4082 7.35916C29.7488 7.5929 32.28 8.37119 34.0754 9.11721L37.145 1.72954C34.8632 0.781422 31.5479 -0.26722 28.2032 -0.601242L27.4082 7.35916ZM31.6102 5.42338V28.1409H39.6102V5.42338H31.6102ZM37.0275 24.4004C34.6913 23.5152 31.5998 22.6207 28.434 22.3061L27.6428 30.2669C29.9133 30.4925 32.2998 31.164 34.1929 31.8814L37.0275 24.4004ZM28.4397 22.3067C25.5983 22.0201 21.8836 22.1161 18.6709 23.9294L22.6031 30.8963C23.6981 30.2783 25.4382 30.0446 27.6371 30.2663L28.4397 22.3067ZM24.637 27.4129V5.10057H16.637V27.4129H24.637ZM22.0839 -0.00986914C18.5367 -3.04135 13.8358 -3.20726 10.5365 -2.87936L11.3276 5.08142C14.0176 4.81408 15.8957 5.22509 16.8865 6.07182L22.0839 -0.00986914ZM10.5323 -2.87895C6.50281 -2.47425 2.55618 -1.13163 0.0839786 -0.014121L3.3792 7.2757C5.293 6.41061 8.38608 5.37685 11.3318 5.081L10.5323 -2.87895ZM0.0840548 -0.0141554C-0.813634 0.391604 -1.57863 1.04724 -2.11687 1.87792L4.59697 6.22814C4.2981 6.6894 3.87437 7.05188 3.37912 7.27574L0.0840548 -0.0141554ZM-2.11687 1.87792C-2.65527 2.70885 -2.94308 3.67864 -2.94336 4.67134L5.05664 4.67357C5.05649 5.2269 4.89601 5.76662 4.59697 6.22814L-2.11687 1.87792ZM-2.94336 4.67246V29.8556H5.05664V4.67246H-2.94336ZM-2.94336 29.8567C-2.94312 30.7221 -2.72434 31.5723 -2.30863 32.3292L4.70349 28.4782C4.93454 28.8989 5.05651 29.3722 5.05664 29.8545L-2.94336 29.8567ZM-2.30863 32.3292C-1.89301 33.086 -1.2945 33.7243 -0.570152 34.1876L3.74036 27.4482C4.1406 27.7042 4.47252 28.0577 4.70349 28.4782L-2.30863 32.3292ZM-0.570152 34.1876C0.154059 34.6508 0.981734 34.9249 1.83704 34.9866L2.41296 27.0074C2.88385 27.0414 3.34026 27.1923 3.74036 27.4482L-0.570152 34.1876ZM1.83704 34.9866C2.69234 35.0483 3.55029 34.8959 4.3328 34.5422L1.03773 27.2523C1.46939 27.0572 1.94207 26.9734 2.41296 27.0074L1.83704 34.9866ZM4.32891 34.544C6.08671 33.7517 8.93371 32.8058 11.5617 32.5421L10.7631 24.5821C7.04707 24.9549 3.34732 26.2114 1.04162 27.2506L4.32891 34.544ZM11.5611 32.5422C12.8966 32.4084 13.8955 32.4769 14.5763 32.6468C15.2288 32.8097 15.4225 33.0181 15.4728 33.0805L21.7008 28.0593C18.9007 24.5863 14.314 24.2265 10.7638 24.582L11.5611 32.5422ZM15.4744 33.0824C15.959 33.6828 16.5715 34.1653 17.2654 34.4962L20.7086 27.2751C21.0915 27.4577 21.4305 27.7244 21.6993 28.0574L15.4744 33.0824ZM17.2654 34.4962C17.9592 34.827 18.7177 34.9983 19.4852 34.9983V26.9983C19.9078 26.9983 20.3257 27.0925 20.7086 27.2751L17.2654 34.4962ZM19.4852 34.9983C20.2527 34.9983 21.0112 34.827 21.705 34.4962L18.2619 27.2751C18.6447 27.0925 19.0627 26.9983 19.4852 26.9983V34.9983ZM21.705 34.4962C22.3989 34.1654 23.0114 33.6828 23.496 33.0824L17.2712 28.0574C17.54 27.7244 17.879 27.4576 18.2619 27.2751L21.705 34.4962ZM23.4976 33.0805C23.548 33.018 23.7418 32.8096 24.394 32.6468C25.0745 32.4769 26.0727 32.4085 27.4068 32.5422L28.2046 24.5821C24.6559 24.2264 20.0696 24.5865 17.2696 28.0593L23.4976 33.0805ZM27.4067 32.5422C30.0376 32.8059 32.8866 33.7521 34.64 34.5433L37.9304 27.2513C35.6248 26.211 31.9224 24.9548 28.2047 24.5821L27.4067 32.5422ZM34.6376 34.5422C35.4201 34.8959 36.2781 35.0483 37.1334 34.9866L36.5575 27.0074C37.0284 26.9734 37.501 27.0572 37.9327 27.2523L34.6376 34.5422ZM37.1334 34.9866C37.9887 34.9249 38.8164 34.6508 39.5406 34.1876L35.2301 27.4482C35.6302 27.1923 36.0866 27.0414 36.5575 27.0074L37.1334 34.9866ZM39.5406 34.1876C40.2649 33.7243 40.8634 33.086 41.2791 32.3292L34.2669 28.4782C34.4979 28.0577 34.8298 27.7042 35.2301 27.4482L39.5406 34.1876ZM41.2791 32.3292C41.6948 31.5723 41.9135 30.7221 41.9138 29.8567L33.9138 29.8545C33.9139 29.3722 34.0359 28.8989 34.2669 28.4782L41.2791 32.3292ZM41.9138 29.8556V4.67246H33.9138V29.8556H41.9138ZM41.9138 4.67134C41.9135 3.67862 41.6257 2.70883 41.0873 1.87792L34.3735 6.22814C34.0744 5.76664 33.9139 5.22692 33.9138 4.67357L41.9138 4.67134ZM41.0873 1.87792C40.5491 1.04726 39.7841 0.391612 38.8864 -0.0141554L35.5913 7.27574C35.096 7.05187 34.6723 6.68938 34.3735 6.22814L41.0873 1.87792ZM38.8864 -0.014121C36.4142 -1.13163 32.4676 -2.47425 28.4381 -2.87895L27.6386 5.081C30.5843 5.37685 33.6774 6.41061 35.5912 7.2757L38.8864 -0.014121ZM28.437 -2.87906C25.1325 -3.21 20.4329 -3.04064 16.8865 -0.00986914L22.0839 6.07182C23.0755 5.22438 24.955 4.81224 27.6398 5.08112L28.437 -2.87906Z" fill="white" mask="url(#path-1-inside-1_384_467)"/>
</g>
<defs>
<filter id="filter0_f_384_467" x="0.959418" y="0.902778" width="37.0516" height="30.1944" filterUnits="userSpaceOnUse" color-interpolation-filters="sRGB">
<feFlood flood-opacity="0" result="BackgroundImageFix"/>
<feBlend mode="normal" in="SourceGraphic" in2="BackgroundImageFix" result="shape"/>
<feGaussianBlur stdDeviation="0.0486111" result="effect1_foregroundBlur_384_467"/>
</filter>
</defs>
</svg>
