<svg width="5" height="26" viewBox="0 0 5 26" fill="none" xmlns="http://www.w3.org/2000/svg">
<path d="M2.44 3.88C3.23529 3.88 3.88 3.23529 3.88 2.44C3.88 1.64471 3.23529 1 2.44 1C1.64471 1 1 1.64471 1 2.44C1 3.23529 1.64471 3.88 2.44 3.88Z" fill="#EE2328"/>
<path d="M2.44 14.44C3.23529 14.44 3.88 13.7953 3.88 13C3.88 12.2047 3.23529 11.56 2.44 11.56C1.64471 11.56 1 12.2047 1 13C1 13.7953 1.64471 14.44 2.44 14.44Z" fill="#EE2328"/>
<path d="M2.44 25C3.23529 25 3.88 24.3553 3.88 23.56C3.88 22.7647 3.23529 22.12 2.44 22.12C1.64471 22.12 1 22.7647 1 23.56C1 24.3553 1.64471 25 2.44 25Z" fill="#EE2328"/>
<path d="M2.44 3.88C3.23529 3.88 3.88 3.23529 3.88 2.44C3.88 1.64471 3.23529 1 2.44 1C1.64471 1 1 1.64471 1 2.44C1 3.23529 1.64471 3.88 2.44 3.88Z" stroke="#EE2328" stroke-width="1.5" stroke-linecap="round" stroke-linejoin="round"/>
<path d="M2.44 14.44C3.23529 14.44 3.88 13.7953 3.88 13C3.88 12.2047 3.23529 11.56 2.44 11.56C1.64471 11.56 1 12.2047 1 13C1 13.7953 1.64471 14.44 2.44 14.44Z" stroke="#EE2328" stroke-width="1.5" stroke-linecap="round" stroke-linejoin="round"/>
<path d="M2.44 25C3.23529 25 3.88 24.3553 3.88 23.56C3.88 22.7647 3.23529 22.12 2.44 22.12C1.64471 22.12 1 22.7647 1 23.56C1 24.3553 1.64471 25 2.44 25Z" stroke="#EE2328" stroke-width="1.5" stroke-linecap="round" stroke-linejoin="round"/>
</svg>
