<svg width="45" height="30" viewBox="0 0 45 30" fill="none" xmlns="http://www.w3.org/2000/svg">
<mask id="path-1-inside-1_384_464" fill="white">
<path d="M15.46 21.9625L8.94147 28.481C8.21598 29.2063 7.29172 29.7003 6.28555 29.9004C5.27937 30.1005 4.23645 29.9977 3.28865 29.6052C2.34085 29.2126 1.53073 28.5478 0.960702 27.6949C0.390676 26.8419 0.0863434 25.8391 0.0861816 24.8133V21.9625L3.0665 7.06315C3.46455 5.07164 4.54032 3.27956 6.11076 1.99181C7.6812 0.704066 9.6493 0.000211004 11.6802 0H32.4172C34.4481 0.000211004 36.4162 0.704066 37.9867 1.99181C39.5571 3.27956 40.6329 5.07164 41.0309 7.06315L44.0112 21.9625V24.8111C44.0111 25.837 43.7067 26.8398 43.1367 27.6927C42.5667 28.5456 41.7566 29.2104 40.8088 29.603C39.861 29.9955 38.818 30.0983 37.8119 29.8982C36.8057 29.6981 35.8814 29.2041 35.1559 28.4788L28.6375 21.9625H15.46Z"/>
<path d="M15.4596 0L17.6559 4.39251H26.4409L28.6371 0"/>
</mask>
<path d="M15.46 21.9625V19.9625H14.6315L14.0457 20.5483L15.46 21.9625ZM8.94147 28.481L10.3555 29.8954L10.3557 29.8952L8.94147 28.481ZM0.0861816 24.8133L-1.91382 24.8133L-1.91382 24.8136L0.0861816 24.8133ZM0.0861816 21.9625L-1.87497 21.5702L-1.91382 21.7645V21.9625H0.0861816ZM3.0665 7.06315L5.02765 7.45544L5.0277 7.45515L3.0665 7.06315ZM11.6802 0L11.6802 -2L11.68 -2L11.6802 0ZM32.4172 0L32.4174 -2H32.4172V0ZM41.0309 7.06315L39.0697 7.45515L39.0698 7.45544L41.0309 7.06315ZM44.0112 21.9625H46.0112V21.7645L45.9724 21.5702L44.0112 21.9625ZM44.0112 24.8111L46.0112 24.8114V24.8111H44.0112ZM35.1559 28.4788L36.57 27.0644L36.5699 27.0644L35.1559 28.4788ZM28.6375 21.9625L30.0514 20.5481L29.4657 19.9625H28.6375V21.9625ZM17.6559 4.39251L15.867 5.28693L16.4198 6.39251H17.6559V4.39251ZM26.4409 4.39251V6.39251H27.6769L28.2297 5.28693L26.4409 4.39251ZM14.0457 20.5483L7.52726 27.0668L10.3557 29.8952L16.8742 23.3767L14.0457 20.5483ZM7.52742 27.0666C7.08163 27.5123 6.51371 27.8158 5.89545 27.9388L6.67564 31.862C8.06974 31.5847 9.35034 30.9003 10.3555 29.8954L7.52742 27.0666ZM5.89545 27.9388C5.2772 28.0617 4.63636 27.9986 4.05398 27.7574L2.52333 31.4529C3.83654 31.9969 5.28154 32.1392 6.67564 31.862L5.89545 27.9388ZM4.05398 27.7574C3.47159 27.5162 2.9738 27.1077 2.62354 26.5836L-0.702137 28.8062C0.0876545 29.988 1.21011 30.909 2.52333 31.4529L4.05398 27.7574ZM2.62354 26.5836C2.27328 26.0595 2.08628 25.4433 2.08618 24.813L-1.91382 24.8136C-1.91359 26.235 -1.49193 27.6244 -0.702137 28.8062L2.62354 26.5836ZM2.08618 24.8133V21.9625H-1.91382V24.8133H2.08618ZM2.04733 22.3548L5.02765 7.45544L1.10535 6.67086L-1.87497 21.5702L2.04733 22.3548ZM5.0277 7.45515C5.33514 5.91703 6.16599 4.53293 7.37891 3.53835L4.84261 0.445268C2.91464 2.02618 1.59397 4.22625 1.10529 6.67115L5.0277 7.45515ZM7.37891 3.53835C8.59182 2.54378 10.1119 2.00016 11.6804 2L11.68 -2C9.18673 -1.99974 6.77057 -1.13565 4.84261 0.445268L7.37891 3.53835ZM11.6802 2H32.4172V-2H11.6802V2ZM32.417 2C33.9856 2.00016 35.5056 2.54378 36.7185 3.53835L39.2548 0.445268C37.3268 -1.13565 34.9107 -1.99974 32.4174 -2L32.417 2ZM36.7185 3.53835C37.9314 4.53293 38.7623 5.91703 39.0697 7.45515L42.9921 6.67115C42.5034 4.22625 41.1828 2.02618 39.2548 0.445268L36.7185 3.53835ZM39.0698 7.45544L42.0501 22.3548L45.9724 21.5702L42.9921 6.67086L39.0698 7.45544ZM42.0112 21.9625V24.8111H46.0112V21.9625H42.0112ZM42.0112 24.8108C42.0111 25.4411 41.8241 26.0573 41.4739 26.5814L44.7996 28.804C45.5894 27.6222 46.011 26.2328 46.0112 24.8114L42.0112 24.8108ZM41.4739 26.5814C41.1236 27.1055 40.6258 27.514 40.0434 27.7552L41.5741 31.4507C42.8873 30.9068 44.0098 29.9858 44.7996 28.804L41.4739 26.5814ZM40.0434 27.7552C39.4611 27.9964 38.8202 28.0595 38.202 27.9366L37.4218 31.8598C38.8159 32.137 40.2609 31.9947 41.5741 31.4507L40.0434 27.7552ZM38.202 27.9366C37.5837 27.8136 37.0158 27.5101 36.57 27.0644L33.7419 29.8932C34.7471 30.8981 36.0277 31.5825 37.4218 31.8598L38.202 27.9366ZM36.5699 27.0644L30.0514 20.5481L27.2235 23.377L33.742 29.8933L36.5699 27.0644ZM28.6375 19.9625H15.46V23.9625H28.6375V19.9625ZM13.6708 0.894427L15.867 5.28693L19.4447 3.49808L17.2485 -0.894427L13.6708 0.894427ZM17.6559 6.39251H26.4409V2.39251H17.6559V6.39251ZM28.2297 5.28693L30.426 0.894427L26.8483 -0.894427L24.652 3.49808L28.2297 5.28693Z" fill="white" mask="url(#path-1-inside-1_384_464)"/>
</svg>
