<svg width="34" height="32" viewBox="0 0 34 32" fill="none" xmlns="http://www.w3.org/2000/svg">
<g filter="url(#filter0_f_384_466)">
<mask id="path-1-inside-1_384_466" fill="white">
<path d="M21.3788 11.9091C22.1756 11.9091 22.9397 12.2323 23.5031 12.8077C23.823 13.1344 24.0633 13.5271 24.2112 13.9545C24.3239 14.28 24.383 14.6255 24.383 14.9773V23.4986C24.383 24.1021 24.3119 24.698 24.1742 25.2747C24.0095 25.9648 23.7497 26.6274 23.4029 27.2425C23.084 27.808 22.6915 28.3334 22.2317 28.8029C20.8543 30.2097 18.986 31 17.038 31C15.0899 31 13.2217 30.2097 11.8442 28.8029C11.343 28.291 10.9217 27.7128 10.5885 27.0884C10.2759 26.5025 10.0409 25.8761 9.89018 25.2257C9.7601 24.6643 9.69288 24.085 9.69288 23.4986V14.9773C9.69288 14.6255 9.75203 14.28 9.86469 13.9545C10.0127 13.5271 10.2529 13.1344 10.5728 12.8077C11.1362 12.2323 11.9004 11.9091 12.6971 11.9091H21.3788ZM21.3788 13.9545H12.6971C12.4315 13.9545 12.1768 14.0623 11.989 14.2541C11.8012 14.4459 11.6957 14.706 11.6957 14.9773V23.4986C11.6957 24.9456 12.2586 26.3334 13.2604 27.3565C14.2623 28.3797 15.6211 28.9545 17.038 28.9545C18.4548 28.9545 19.8136 28.3797 20.8155 27.3565C21.8174 26.3334 22.3802 24.9456 22.3802 23.4986V14.9773C22.3802 14.706 22.2747 14.4459 22.0869 14.2541C21.8991 14.0623 21.6444 13.9545 21.3788 13.9545ZM4.01549 11.9091H9.5647C9.02863 12.4791 8.65194 13.1854 8.47382 13.9545H4.01549C3.7499 13.9545 3.49518 14.0623 3.30738 14.2541C3.11958 14.4459 3.01407 14.706 3.01407 14.9773V22.135C3.01389 22.8192 3.1817 23.4925 3.50213 24.0934C3.82257 24.6943 4.28541 25.2035 4.84832 25.5745C5.41124 25.9455 6.05625 26.1665 6.72437 26.2171C7.39248 26.2678 8.06237 26.1466 8.67277 25.8645C8.85035 26.5327 9.10538 27.1682 9.42583 27.7627C8.51103 28.1706 7.51114 28.3394 6.51647 28.2538C5.52179 28.1682 4.56366 27.8309 3.72859 27.2724C2.89352 26.7139 2.20781 25.9518 1.73339 25.0549C1.25897 24.1579 1.01078 23.1544 1.01123 22.135V14.9773C1.01123 14.1635 1.32775 13.3831 1.89116 12.8077C2.45457 12.2323 3.21871 11.9091 4.01549 11.9091ZM30.0524 11.9091C30.8492 11.9091 31.6133 12.2323 32.1768 12.8077C32.7402 13.3831 33.0567 14.1635 33.0567 14.9773V22.1364C33.0571 23.1552 32.8091 24.1581 32.335 25.0546C31.861 25.9511 31.1758 26.713 30.3414 27.2714C29.507 27.8298 28.5495 28.1673 27.5554 28.2533C26.5614 28.3393 25.562 28.1712 24.6474 27.7641L24.7222 27.625C25.0079 27.0714 25.2389 26.4836 25.4045 25.8673C26.0146 26.1476 26.6836 26.2675 27.3507 26.2159C28.0178 26.1643 28.6615 25.9429 29.2233 25.5719C29.785 25.2009 30.2469 24.6921 30.5666 24.092C30.8864 23.4919 31.0539 22.8196 31.0538 22.1364V14.9773C31.0538 14.7063 30.9485 14.4463 30.761 14.2546C30.5735 14.0628 30.3191 13.9549 30.0538 13.9545H25.6034C25.425 13.1853 25.0478 12.4789 24.5112 11.9091H30.0538H30.0524ZM17.034 1C17.6477 1 18.2554 1.12345 18.8224 1.3633C19.3893 1.60315 19.9045 1.95471 20.3385 2.3979C20.7724 2.84109 21.1167 3.36723 21.3515 3.94628C21.5864 4.52534 21.7073 5.14596 21.7073 5.77273C21.7073 6.39949 21.5864 7.02012 21.3515 7.59917C21.1167 8.17823 20.7724 8.70437 20.3385 9.14755C19.9045 9.59074 19.3893 9.9423 18.8224 10.1822C18.2554 10.422 17.6477 10.5455 17.034 10.5455C15.7945 10.5455 14.6059 10.0426 13.7294 9.14755C12.853 8.25249 12.3607 7.03853 12.3607 5.77273C12.3607 4.50692 12.853 3.29296 13.7294 2.3979C14.6059 1.50284 15.7945 1 17.034 1ZM27.7198 2.36364C28.2458 2.36364 28.7667 2.46945 29.2527 2.67504C29.7387 2.88063 30.1803 3.18196 30.5522 3.56184C30.9242 3.94171 31.2192 4.39269 31.4205 4.88902C31.6219 5.38535 31.7255 5.91732 31.7255 6.45455C31.7255 6.99177 31.6219 7.52374 31.4205 8.02007C31.2192 8.5164 30.9242 8.96738 30.5522 9.34726C30.1803 9.72713 29.7387 10.0285 29.2527 10.2341C28.7667 10.4396 28.2458 10.5455 27.7198 10.5455C26.6574 10.5455 25.6385 10.1144 24.8873 9.34726C24.1361 8.58006 23.7141 7.53952 23.7141 6.45455C23.7141 5.36957 24.1361 4.32903 24.8873 3.56184C25.6385 2.79464 26.6574 2.36364 27.7198 2.36364ZM6.34813 2.36364C6.87417 2.36364 7.39505 2.46945 7.88104 2.67504C8.36704 2.88063 8.80862 3.18196 9.18058 3.56184C9.55254 3.94171 9.8476 4.39269 10.0489 4.88902C10.2502 5.38535 10.3538 5.91732 10.3538 6.45455C10.3538 6.99177 10.2502 7.52374 10.0489 8.02007C9.8476 8.5164 9.55254 8.96738 9.18058 9.34726C8.80862 9.72713 8.36704 10.0285 7.88104 10.2341C7.39505 10.4396 6.87417 10.5455 6.34813 10.5455C5.28576 10.5455 4.2669 10.1144 3.51569 9.34726C2.76448 8.58006 2.34245 7.53952 2.34245 6.45455C2.34245 5.36957 2.76448 4.32903 3.51569 3.56184C4.2669 2.79464 5.28576 2.36364 6.34813 2.36364ZM17.034 3.04545C16.3257 3.04545 15.6465 3.33279 15.1457 3.84425C14.6449 4.35572 14.3635 5.04941 14.3635 5.77273C14.3635 6.49605 14.6449 7.18974 15.1457 7.7012C15.6465 8.21266 16.3257 8.5 17.034 8.5C17.7422 8.5 18.4214 8.21266 18.9223 7.7012C19.4231 7.18974 19.7044 6.49605 19.7044 5.77273C19.7044 5.04941 19.4231 4.35572 18.9223 3.84425C18.4214 3.33279 17.7422 3.04545 17.034 3.04545ZM27.7198 4.40909C27.4568 4.40909 27.1963 4.462 26.9533 4.56479C26.7103 4.66759 26.4895 4.81825 26.3036 5.00819C26.1176 5.19813 25.97 5.42362 25.8694 5.67178C25.7687 5.91995 25.7169 6.18593 25.7169 6.45455C25.7169 6.72316 25.7687 6.98914 25.8694 7.23731C25.97 7.48547 26.1176 7.71096 26.3036 7.9009C26.4895 8.09084 26.7103 8.24151 26.9533 8.3443C27.1963 8.44709 27.4568 8.5 27.7198 8.5C28.251 8.5 28.7604 8.2845 29.136 7.9009C29.5116 7.5173 29.7226 6.99703 29.7226 6.45455C29.7226 5.91206 29.5116 5.39179 29.136 5.00819C28.7604 4.62459 28.251 4.40909 27.7198 4.40909ZM6.34813 4.40909C6.08512 4.40909 5.82468 4.462 5.58168 4.56479C5.33868 4.66759 5.11789 4.81825 4.93191 5.00819C4.74593 5.19813 4.5984 5.42362 4.49775 5.67178C4.3971 5.91995 4.34529 6.18593 4.34529 6.45455C4.34529 6.72316 4.3971 6.98914 4.49775 7.23731C4.5984 7.48547 4.74593 7.71096 4.93191 7.9009C5.11789 8.09084 5.33868 8.24151 5.58168 8.3443C5.82468 8.44709 6.08512 8.5 6.34813 8.5C6.87932 8.5 7.38875 8.2845 7.76436 7.9009C8.13996 7.5173 8.35098 6.99703 8.35098 6.45455C8.35098 5.91206 8.13996 5.39179 7.76436 5.00819C7.38875 4.62459 6.87932 4.40909 6.34813 4.40909Z"/>
<path d="M9.86469 13.9545C10.0127 13.5271 10.2529 13.1344 10.5728 12.8077C11.1362 12.2323 11.9004 11.9091 12.6971 11.9091H9.5647C9.02863 12.4791 8.65194 13.1854 8.47382 13.9545H9.86469Z"/>
<path d="M10.5885 27.0884C10.2759 26.5025 10.0409 25.8761 9.89018 25.2257L8.67277 25.8645C8.85035 26.5327 9.10538 27.1682 9.42583 27.7627L10.5885 27.0884Z"/>
<path d="M21.3788 11.9091C22.1756 11.9091 22.9397 12.2323 23.5031 12.8077C23.823 13.1344 24.0633 13.5271 24.2112 13.9545H25.6034C25.425 13.1853 25.0478 12.4789 24.5112 11.9091H21.3788Z"/>
<path d="M24.1742 25.2747C24.0095 25.9648 23.7497 26.6274 23.4029 27.2425L24.6474 27.7641L24.7222 27.625C25.0079 27.0714 25.2389 26.4836 25.4045 25.8673L24.1742 25.2747Z"/>
</mask>
<path d="M21.3788 11.9091V9.90909H16.9684L19.8743 13.2268L21.3788 11.9091ZM23.5031 12.8077L24.9321 11.4085L24.9321 11.4085L23.5031 12.8077ZM10.5728 12.8077L12.0018 14.207L12.0018 14.207L10.5728 12.8077ZM12.6971 11.9091L14.5871 12.5634L15.506 9.90909H12.6971V11.9091ZM24.7222 27.625L26.4838 28.572L26.4917 28.5572L26.4994 28.5423L24.7222 27.625ZM10.2158 25.0549L12.0929 24.3646L11.3058 22.2243L9.28648 23.2839L10.2158 25.0549ZM10.8976 26.9091L11.901 28.6391L13.3547 27.796L12.7747 26.2189L10.8976 26.9091ZM11.989 13.9545V15.9545H13.4131L13.879 14.6088L11.989 13.9545ZM9.86469 13.9545L7.97475 13.3002L7.05581 15.9545H9.86469V13.9545ZM10.5885 27.0884L8.82399 28.0299L9.7995 29.8581L11.5919 28.8184L10.5885 27.0884ZM9.89018 25.2257L8.96089 23.4547L7.59317 24.1724L7.94179 25.6771L9.89018 25.2257ZM23.1703 13.9545L21.6658 15.2723L22.2634 15.9545H23.1703V13.9545ZM24.2112 13.9545V15.9545H27.0201L26.1012 13.3002L24.2112 13.9545ZM23.7179 25.0549L24.5858 23.253L22.5434 22.2692L21.8219 24.4183L23.7179 25.0549ZM23.0352 27.0884L21.1392 26.4518L20.5475 28.2143L22.2621 28.9329L23.0352 27.0884ZM24.1742 25.2747L26.1196 25.7389L26.4936 24.1719L25.0422 23.4728L24.1742 25.2747ZM23.4029 27.2425L22.6298 29.087L24.2709 29.7749L25.145 28.2249L23.4029 27.2425ZM21.3788 13.9091C21.6314 13.9091 21.8824 14.0112 22.0741 14.207L24.9321 11.4085C23.9971 10.4535 22.7198 9.90909 21.3788 9.90909V13.9091ZM12.0018 14.207C12.1936 14.0112 12.4445 13.9091 12.6971 13.9091V9.90909C11.3562 9.90909 10.0789 10.4535 9.14379 11.4085L12.0018 14.207ZM8.10777 10.5389C7.32727 11.3688 6.78251 12.3931 6.52539 13.5033L10.4222 14.4058C10.5214 13.9778 10.73 13.5894 11.0216 13.2793L8.10777 10.5389ZM6.73987 26.3783C6.95878 27.2019 7.27262 27.9831 7.66528 28.7116L11.1864 26.8138C10.9381 26.3532 10.7419 25.8635 10.6057 25.3508L6.73987 26.3783ZM26.409 28.7111L26.4838 28.572L22.9606 26.678L22.8858 26.8171L26.409 28.7111ZM26.4994 28.5423C26.8483 27.8662 27.1321 27.1453 27.336 26.3861L23.473 25.3484C23.3458 25.822 23.1675 26.2765 22.9449 26.7077L26.4994 28.5423ZM27.5517 13.5026C27.2941 12.392 26.7486 11.3677 25.9672 10.5379L23.0552 13.2802C23.3471 13.5901 23.5559 13.9785 23.6552 14.4065L27.5517 13.5026ZM8.33866 25.7451L9.02048 27.5993L12.7747 26.2189L12.0929 24.3646L8.33866 25.7451ZM10.5728 15.9545H11.989V11.9545H10.5728V15.9545ZM13.879 14.6088L14.5871 12.5634L10.8072 11.2548L10.0991 13.3003L13.879 14.6088ZM11.7546 14.6089C11.8077 14.4557 11.8925 14.3186 12.0018 14.207L9.14379 11.4085C8.61339 11.9502 8.21766 12.5986 7.97475 13.3002L11.7546 14.6089ZM9.86469 15.9545H10.5728V11.9545H9.86469V15.9545ZM12.353 26.1468C12.1231 25.716 11.9498 25.2544 11.8386 24.7743L7.94179 25.6771C8.13193 26.4978 8.42867 27.2891 8.82399 28.0299L12.353 26.1468ZM10.8195 26.9967L11.1451 26.8259L9.28648 23.2839L8.96089 23.4547L10.8195 26.9967ZM9.89414 25.179L9.58505 25.3583L11.5919 28.8184L11.901 28.6391L9.89414 25.179ZM24.6748 12.6368L22.8833 10.5913L19.8743 13.2268L21.6658 15.2723L24.6748 12.6368ZM22.0741 14.207C22.1834 14.3186 22.2683 14.4557 22.3213 14.6089L26.1012 13.3002C25.8583 12.5986 25.4625 11.9502 24.9321 11.4085L22.0741 14.207ZM24.2112 11.9545H23.1703V15.9545H24.2112V11.9545ZM21.8219 24.4183L21.1392 26.4518L24.9312 27.7249L25.6139 25.6914L21.8219 24.4183ZM22.2289 24.8104C22.1073 25.3199 21.9157 25.808 21.6608 26.2601L25.145 28.2249C25.5837 27.4468 25.9118 26.6097 26.1196 25.7389L22.2289 24.8104ZM22.2621 28.9329L22.6298 29.087L24.176 25.3979L23.8083 25.2438L22.2621 28.9329ZM25.0422 23.4728L24.5858 23.253L22.85 26.8567L23.3063 27.0765L25.0422 23.4728ZM24.383 23.4986H28.383H24.383ZM22.2317 28.8029L25.0898 31.6014L22.2317 28.8029ZM17.038 31V35V31ZM11.8442 28.8029L14.7022 26.0044L11.8442 28.8029ZM9.69288 23.4986H5.69288H9.69288ZM12.6971 13.9545V17.9545V13.9545ZM11.6957 23.4986H7.69572H11.6957ZM22.3802 23.4986H18.3802H22.3802ZM4.01549 13.9545V17.9545V13.9545ZM3.01407 22.135L7.01407 22.136V22.135H3.01407ZM8.67277 25.8645L10.3505 29.4957L10.4421 29.4534L10.5314 29.4065L8.67277 25.8645ZM9.42583 27.7627L11.0548 31.416L11.2489 31.3295L11.4327 31.2228L9.42583 27.7627ZM1.01123 22.135L5.01123 22.1368V22.135H1.01123ZM33.0567 22.1364H29.0567L29.0567 22.1379L33.0567 22.1364ZM24.6474 27.7641L26.2741 24.1098L26.234 24.092L26.1936 24.075L24.6474 27.7641ZM25.4045 25.8673L23.6687 29.471L23.7013 29.4867L23.7343 29.5019L25.4045 25.8673ZM31.0538 22.1364H27.0538V22.1366L31.0538 22.1364ZM31.0538 14.9773L27.0538 14.9773V14.9773H31.0538ZM30.0538 13.9545L30.0592 9.95455H30.0538V13.9545ZM12.3607 5.77273H8.36066H12.3607ZM27.7198 2.36364V6.36364V2.36364ZM27.7198 10.5455V6.54545V10.5455ZM6.34813 2.36364V6.36364V2.36364ZM6.34813 10.5455V6.54545V10.5455ZM17.034 3.04545V-0.954545V3.04545ZM27.7198 4.40909V8.40909V4.40909ZM27.7198 8.5V4.5V8.5ZM6.34813 4.40909V8.40909V4.40909ZM4.34529 6.45455H8.34529H4.34529ZM6.34813 8.5V4.5V8.5ZM9.86469 13.9545L13.6446 15.2632L15.4825 9.95455H9.86469V13.9545ZM10.5885 27.0884L14.1175 25.2053L12.1665 21.549L8.5816 23.6283L10.5885 27.0884ZM9.89018 25.2257L11.7488 28.7677L14.4842 27.3323L13.787 24.3229L9.89018 25.2257ZM24.2112 13.9545V9.95455H18.5935L20.4314 15.2632L24.2112 13.9545ZM24.1742 25.2747L20.2835 24.3462L19.5356 27.4802L22.4384 28.8784L24.1742 25.2747ZM23.4029 27.2425L24.9491 23.5534L21.6668 22.1777L19.9187 25.2777L23.4029 27.2425ZM20.383 14.9773V23.4986H28.383V14.9773H20.383ZM19.3737 26.0044C18.7396 26.652 17.8976 27 17.038 27V35C20.0744 35 22.9689 33.7673 25.0898 31.6014L19.3737 26.0044ZM17.038 27C16.1783 27 15.3364 26.652 14.7022 26.0044L8.98616 31.6014C11.107 33.7673 14.0016 35 17.038 35V27ZM13.6929 23.4986V14.9773H5.69288V23.4986H13.6929ZM12.6971 15.9091H21.3788V7.90909H12.6971V15.9091ZM21.3788 9.95455H12.6971V17.9545H21.3788V9.95455ZM12.6971 9.95455C11.3432 9.95455 10.0621 10.5046 9.13099 11.4556L14.8471 17.0526C14.2915 17.62 13.5199 17.9545 12.6971 17.9545V9.95455ZM9.13099 11.4556C8.20264 12.4037 7.69572 13.672 7.69572 14.9773H15.6957C15.6957 15.74 15.3998 16.4881 14.8471 17.0526L9.13099 11.4556ZM7.69572 14.9773V23.4986H15.6957V14.9773H7.69572ZM7.69572 23.4986C7.69572 25.9796 8.65997 28.3756 10.4024 30.155L16.1185 24.558C15.8572 24.2912 15.6957 23.9116 15.6957 23.4986H7.69572ZM10.4024 30.155C12.1476 31.9374 14.5328 32.9545 17.038 32.9545V24.9545C16.7095 24.9545 16.377 24.8221 16.1185 24.558L10.4024 30.155ZM17.038 32.9545C19.5432 32.9545 21.9283 31.9374 23.6735 30.155L17.9575 24.558C17.6989 24.8221 17.3665 24.9545 17.038 24.9545V32.9545ZM23.6735 30.155C25.416 28.3756 26.3802 25.9796 26.3802 23.4986H18.3802C18.3802 23.9116 18.2188 24.2912 17.9575 24.558L23.6735 30.155ZM26.3802 23.4986V14.9773H18.3802V23.4986H26.3802ZM26.3802 14.9773C26.3802 13.672 25.8733 12.4037 24.9449 11.4556L19.2289 17.0526C18.6761 16.4881 18.3802 15.74 18.3802 14.9773H26.3802ZM24.9449 11.4556C24.0138 10.5046 22.7328 9.95455 21.3788 9.95455V17.9545C20.556 17.9545 19.7844 17.62 19.2289 17.0526L24.9449 11.4556ZM4.01549 15.9091H9.5647V7.90909H4.01549V15.9091ZM8.47382 9.95455H4.01549V17.9545H8.47382V9.95455ZM4.01549 9.95455C2.66153 9.95455 1.38049 10.5046 0.44934 11.4556L6.16542 17.0526C5.60988 17.62 4.83827 17.9545 4.01549 17.9545V9.95455ZM0.44934 11.4556C-0.479011 12.4037 -0.985928 13.672 -0.985928 14.9773H7.01407C7.01407 15.74 6.71817 16.4881 6.16542 17.0526L0.44934 11.4556ZM-0.985928 14.9773V22.135H7.01407V14.9773H-0.985928ZM-0.985928 22.134C-0.986278 23.4718 -0.658408 24.7923 -0.0273458 25.9756L7.03161 22.2112C7.0218 22.1928 7.01406 22.1666 7.01407 22.136L-0.985928 22.134ZM-0.0273458 25.9756C0.603943 27.1594 1.52087 28.1721 2.64709 28.9144L7.04956 22.2347C7.04995 22.2349 7.0412 22.2292 7.03161 22.2112L-0.0273458 25.9756ZM2.64709 28.9144C3.77385 29.657 5.07165 30.1033 6.4219 30.2057L7.02684 22.2286C7.03338 22.2291 7.03893 22.2304 7.0431 22.2318C7.04726 22.2332 7.04936 22.2345 7.04956 22.2347L2.64709 28.9144ZM6.4219 30.2057C7.77227 30.3081 9.12358 30.0626 10.3505 29.4957L6.99502 22.2334C7.00117 22.2306 7.01269 22.2275 7.02684 22.2286L6.4219 30.2057ZM7.79684 24.1095C7.49851 24.2425 7.17695 24.2959 6.85942 24.2685L6.17351 32.2391C7.84533 32.383 9.52355 32.0988 11.0548 31.416L7.79684 24.1095ZM6.85942 24.2685C6.54176 24.2412 6.22992 24.1332 5.95231 23.9475L1.50487 30.5974C2.89739 31.5287 4.50182 32.0952 6.17351 32.2391L6.85942 24.2685ZM5.95231 23.9475C5.67417 23.7615 5.43687 23.5016 5.26925 23.1847L-1.80246 26.9251C-1.02125 28.4021 0.112865 29.6664 1.50487 30.5974L5.95231 23.9475ZM5.26925 23.1847C5.1014 22.8673 5.01107 22.5069 5.01123 22.1368L-2.98877 22.1332C-2.9895 23.802 -2.58346 25.4485 -1.80246 26.9251L5.26925 23.1847ZM5.01123 22.135V14.9773H-2.98877V22.135H5.01123ZM5.01123 14.9773C5.01123 15.1976 4.92634 15.4253 4.7492 15.6062L-0.966883 10.0092C-2.27084 11.3409 -2.98877 13.1295 -2.98877 14.9773H5.01123ZM4.7492 15.6062C4.56926 15.79 4.30708 15.9091 4.01549 15.9091V7.90909C2.13035 7.90909 0.339871 8.67468 -0.966883 10.0092L4.7492 15.6062ZM30.0524 15.9091C29.7608 15.9091 29.4987 15.79 29.3187 15.6062L35.0348 10.0092C33.728 8.67469 31.9376 7.90909 30.0524 7.90909V15.9091ZM29.3187 15.6062C29.1416 15.4253 29.0567 15.1976 29.0567 14.9773H37.0567C37.0567 13.1295 36.3388 11.3409 35.0348 10.0092L29.3187 15.6062ZM29.0567 14.9773V22.1364H37.0567V14.9773H29.0567ZM29.0567 22.1379C29.0568 22.5077 28.9666 22.8678 28.799 23.1848L35.8711 26.9244C36.6516 25.4485 37.0573 23.8027 37.0567 22.1348L29.0567 22.1379ZM28.799 23.1848C28.6315 23.5015 28.3945 23.7612 28.1167 23.9471L32.5661 30.5957C33.9571 29.6647 35.0904 28.4008 35.8711 26.9244L28.799 23.1848ZM28.1167 23.9471C27.8394 24.1327 27.5279 24.2407 27.2106 24.2682L27.9003 32.2384C29.5711 32.0938 31.1745 31.5269 32.5661 30.5957L28.1167 23.9471ZM27.2106 24.2682C26.8934 24.2956 26.5722 24.2425 26.2741 24.1098L23.0208 31.4184C24.5518 32.0999 26.2293 32.383 27.9003 32.2384L27.2106 24.2682ZM23.7343 29.5019C24.9608 30.0655 26.3108 30.3082 27.6592 30.2039L27.0422 22.2278C27.0565 22.2267 27.0683 22.2297 27.0747 22.2327L23.7343 29.5019ZM27.6592 30.2039C29.0075 30.0996 30.303 29.6524 31.4276 28.9097L27.019 22.2341C27.0192 22.2339 27.0214 22.2325 27.0257 22.2311C27.0299 22.2296 27.0356 22.2283 27.0422 22.2278L27.6592 30.2039ZM31.4276 28.9097C32.5517 28.1673 33.4667 27.1554 34.0968 25.973L27.0365 22.211C27.027 22.2288 27.0184 22.2344 27.019 22.2341L31.4276 28.9097ZM34.0968 25.973C34.7266 24.791 35.0539 23.4722 35.0538 22.1361L27.0538 22.1366C27.0538 22.167 27.0462 22.1928 27.0365 22.211L34.0968 25.973ZM35.0538 22.1364V14.9773H27.0538V22.1364H35.0538ZM35.0538 14.9773C35.0538 13.6732 34.5478 12.4059 33.6209 11.458L27.9011 17.0512C27.3492 16.4868 27.0538 15.7394 27.0538 14.9773L35.0538 14.9773ZM33.6209 11.458C32.6912 10.5073 31.412 9.95639 30.0592 9.95455L30.0483 17.9545C29.2263 17.9534 28.4558 17.6184 27.9011 17.0512L33.6209 11.458ZM30.0538 9.95455H25.6034V17.9545H30.0538V9.95455ZM24.5112 15.9091H30.0538V7.90909H24.5112V15.9091ZM30.0538 7.90909H30.0524V15.9091H30.0538V7.90909ZM17.034 5C17.1105 5 17.1884 5.0153 17.2639 5.04724L20.3808 -2.32063C19.3223 -2.7684 18.1848 -3 17.034 -3V5ZM17.2639 5.04724C17.3396 5.07926 17.414 5.12852 17.4804 5.1964L23.1965 -0.400599C22.3951 -1.2191 21.439 -1.87295 20.3808 -2.32063L17.2639 5.04724ZM17.4804 5.1964C17.5471 5.26445 17.6043 5.3498 17.6448 5.44967L25.0582 2.44289C24.629 1.38466 23.9978 0.417723 23.1965 -0.400599L17.4804 5.1964ZM17.6448 5.44967C17.6854 5.54969 17.7073 5.6597 17.7073 5.77273H25.7073C25.7073 4.63222 25.4874 3.50099 25.0582 2.44289L17.6448 5.44967ZM17.7073 5.77273C17.7073 5.88575 17.6854 5.99577 17.6448 6.09578L25.0582 9.10256C25.4874 8.04447 25.7073 6.91323 25.7073 5.77273H17.7073ZM17.6448 6.09578C17.6043 6.19566 17.5471 6.281 17.4804 6.34906L23.1965 11.9461C23.9978 11.1277 24.629 10.1608 25.0582 9.10256L17.6448 6.09578ZM17.4804 6.34906C17.414 6.41694 17.3396 6.4662 17.2639 6.49822L20.3808 13.8661C21.439 13.4184 22.3951 12.7646 23.1965 11.9461L17.4804 6.34906ZM17.2639 6.49822C17.1884 6.53016 17.1105 6.54545 17.034 6.54545V14.5455C18.1848 14.5455 19.3223 14.3139 20.3808 13.8661L17.2639 6.49822ZM17.034 6.54545C16.8829 6.54545 16.7205 6.48495 16.5875 6.34906L10.8714 11.9461C12.4912 13.6003 14.7062 14.5455 17.034 14.5455V6.54545ZM16.5875 6.34906C16.4516 6.2103 16.3607 6.00452 16.3607 5.77273H8.36066C8.36066 8.07255 9.25444 10.2947 10.8714 11.9461L16.5875 6.34906ZM16.3607 5.77273C16.3607 5.54093 16.4516 5.33516 16.5875 5.1964L10.8714 -0.400599C9.25444 1.25076 8.36066 3.47291 8.36066 5.77273H16.3607ZM16.5875 5.1964C16.7205 5.0605 16.8829 5 17.034 5V-3C14.7062 -3 12.4912 -2.05482 10.8714 -0.400599L16.5875 5.1964ZM27.7198 6.36364C27.7087 6.36364 27.6998 6.3613 27.6943 6.35897L30.8111 -1.0089C29.8336 -1.42239 28.7829 -1.63636 27.7198 -1.63636V6.36364ZM27.6943 6.35897C27.689 6.35673 27.6897 6.35577 27.6942 6.36034L33.4103 0.763337C32.6708 0.00814712 31.7884 -0.595482 30.8111 -1.0089L27.6943 6.35897ZM27.6942 6.36034C27.6988 6.36507 27.7069 6.37525 27.7138 6.39241L35.1273 3.38563C34.7316 2.41013 34.1496 1.51835 33.4103 0.763337L27.6942 6.36034ZM27.7138 6.39241C27.7208 6.4097 27.7255 6.43106 27.7255 6.45455H35.7255C35.7255 5.40358 35.5229 4.36101 35.1273 3.38563L27.7138 6.39241ZM27.7255 6.45455C27.7255 6.47803 27.7208 6.49939 27.7138 6.51668L35.1273 9.52346C35.5229 8.54808 35.7255 7.50551 35.7255 6.45455H27.7255ZM27.7138 6.51668C27.7069 6.53384 27.6988 6.54402 27.6942 6.54876L33.4103 12.1458C34.1496 11.3907 34.7316 10.499 35.1273 9.52346L27.7138 6.51668ZM27.6942 6.54876C27.6897 6.55332 27.689 6.55236 27.6943 6.55012L30.8111 13.918C31.7884 13.5046 32.6708 12.9009 33.4103 12.1458L27.6942 6.54876ZM27.6943 6.55012C27.6998 6.54779 27.7087 6.54545 27.7198 6.54545V14.5455C28.7829 14.5455 29.8336 14.3315 30.8111 13.918L27.6943 6.55012ZM27.7198 6.54545C27.7309 6.54545 27.74 6.5479 27.7453 6.55012C27.7504 6.55229 27.7499 6.55335 27.7454 6.54876L22.0293 12.1458C23.5239 13.6721 25.569 14.5455 27.7198 14.5455V6.54545ZM27.7454 6.54876C27.7347 6.53787 27.7141 6.50551 27.7141 6.45455H19.7141C19.7141 8.57353 20.5375 10.6223 22.0293 12.1458L27.7454 6.54876ZM27.7141 6.45455C27.7141 6.40358 27.7347 6.37123 27.7454 6.36034L22.0293 0.763337C20.5375 2.28683 19.7141 4.33556 19.7141 6.45455H27.7141ZM27.7454 6.36034C27.7499 6.35574 27.7504 6.3568 27.7453 6.35897C27.74 6.36119 27.7309 6.36364 27.7198 6.36364V-1.63636C25.569 -1.63636 23.5239 -0.763019 22.0293 0.763337L27.7454 6.36034ZM6.34813 6.36364C6.33705 6.36364 6.32813 6.3613 6.32264 6.35897L9.43945 -1.0089C8.46197 -1.42239 7.41129 -1.63636 6.34813 -1.63636V6.36364ZM6.32264 6.35897C6.31734 6.35673 6.31807 6.35577 6.32254 6.36034L12.0386 0.763337C11.2992 0.00815254 10.4167 -0.595479 9.43945 -1.0089L6.32264 6.35897ZM6.32254 6.36034C6.32718 6.36508 6.33522 6.37526 6.34218 6.39241L13.7556 3.38563C13.36 2.41012 12.7779 1.51834 12.0386 0.763337L6.32254 6.36034ZM6.34218 6.39241C6.34919 6.4097 6.35382 6.43106 6.35382 6.45455H14.3538C14.3538 5.40358 14.1512 4.36101 13.7556 3.38563L6.34218 6.39241ZM6.35382 6.45455C6.35382 6.47804 6.34919 6.49939 6.34218 6.51668L13.7556 9.52346C14.1512 8.54808 14.3538 7.50551 14.3538 6.45455H6.35382ZM6.34218 6.51668C6.33522 6.53383 6.32718 6.54401 6.32254 6.54876L12.0386 12.1458C12.7779 11.3907 13.36 10.499 13.7556 9.52346L6.34218 6.51668ZM6.32254 6.54876C6.31807 6.55332 6.31734 6.55236 6.32264 6.55012L9.43945 13.918C10.4167 13.5046 11.2992 12.9009 12.0386 12.1458L6.32254 6.54876ZM6.32264 6.55012C6.32814 6.54779 6.33705 6.54545 6.34813 6.54545V14.5455C7.41128 14.5455 8.46197 14.3315 9.43945 13.918L6.32264 6.55012ZM6.34813 6.54545C6.35927 6.54545 6.36839 6.5479 6.37363 6.55012C6.37876 6.55229 6.37823 6.55335 6.37373 6.54876L0.657648 12.1458C2.15221 13.6721 4.1974 14.5455 6.34813 14.5455V6.54545ZM6.37373 6.54876C6.36307 6.53787 6.34245 6.50551 6.34245 6.45455H-1.65755C-1.65755 8.57353 -0.834111 10.6223 0.657648 12.1458L6.37373 6.54876ZM6.34245 6.45455C6.34245 6.40358 6.36307 6.37123 6.37373 6.36034L0.657648 0.763337C-0.834111 2.28684 -1.65755 4.33556 -1.65755 6.45455H6.34245ZM6.37373 6.36034C6.37823 6.35574 6.37876 6.3568 6.37363 6.35897C6.36839 6.36119 6.35927 6.36364 6.34813 6.36364V-1.63636C4.1974 -1.63636 2.15221 -0.76302 0.657648 0.763337L6.37373 6.36034ZM17.034 -0.954545C15.2373 -0.954545 13.5318 -0.22487 12.2876 1.04575L18.0037 6.64275C17.7612 6.89045 17.4141 7.04545 17.034 7.04545V-0.954545ZM12.2876 1.04575C11.0463 2.31352 10.3635 4.0154 10.3635 5.77273H18.3635C18.3635 6.08342 18.2434 6.39791 18.0037 6.64275L12.2876 1.04575ZM10.3635 5.77273C10.3635 7.53006 11.0463 9.23193 12.2876 10.4997L18.0037 4.9027C18.2434 5.14754 18.3635 5.46203 18.3635 5.77273H10.3635ZM12.2876 10.4997C13.5318 11.7703 15.2373 12.5 17.034 12.5V4.5C17.4141 4.5 17.7612 4.655 18.0037 4.9027L12.2876 10.4997ZM17.034 12.5C18.8306 12.5 20.5361 11.7703 21.7803 10.4997L16.0642 4.9027C16.3068 4.655 16.6538 4.5 17.034 4.5V12.5ZM21.7803 10.4997C23.0216 9.23194 23.7044 7.53006 23.7044 5.77273H15.7044C15.7044 5.46203 15.8245 5.14754 16.0642 4.9027L21.7803 10.4997ZM23.7044 5.77273C23.7044 4.01539 23.0216 2.31352 21.7803 1.04575L16.0642 6.64275C15.8245 6.39792 15.7044 6.08343 15.7044 5.77273H23.7044ZM21.7803 1.04575C20.5361 -0.22487 18.8306 -0.954545 17.034 -0.954545V7.04545C16.6538 7.04545 16.3068 6.89045 16.0642 6.64275L21.7803 1.04575ZM27.7198 0.409091C26.9197 0.409091 26.1294 0.57015 25.3949 0.880856L28.5117 8.24873C28.2632 8.35385 27.9939 8.40909 27.7198 8.40909V0.409091ZM25.3949 0.880856C24.6606 1.19148 23.999 1.64444 23.4455 2.20969L29.1616 7.80669C28.9801 7.99207 28.76 8.14369 28.5117 8.24873L25.3949 0.880856ZM23.4455 2.20969C22.8922 2.77477 22.4577 3.44106 22.1627 4.16839L29.5761 7.17517C29.4824 7.40618 29.3429 7.62149 29.1616 7.80669L23.4455 2.20969ZM22.1627 4.16839C21.8677 4.89562 21.7169 5.67221 21.7169 6.45455H29.7169C29.7169 6.69966 29.6698 6.94428 29.5761 7.17517L22.1627 4.16839ZM21.7169 6.45455C21.7169 7.23688 21.8677 8.01348 22.1627 8.7407L29.5761 5.73392C29.6698 5.96481 29.7169 6.20943 29.7169 6.45455H21.7169ZM22.1627 8.7407C22.4577 9.46803 22.8922 10.1343 23.4455 10.6994L29.1616 5.1024C29.3429 5.2876 29.4824 5.50291 29.5761 5.73392L22.1627 8.7407ZM23.4455 10.6994C23.999 11.2647 24.6606 11.7176 25.3949 12.0282L28.5117 4.66036C28.76 4.7654 28.9801 4.91703 29.1616 5.1024L23.4455 10.6994ZM25.3949 12.0282C26.1294 12.3389 26.9197 12.5 27.7198 12.5V4.5C27.9939 4.5 28.2632 4.55525 28.5117 4.66036L25.3949 12.0282ZM27.7198 12.5C29.3393 12.5 30.8751 11.8422 31.994 10.6994L26.278 5.1024C26.6457 4.72684 27.1626 4.5 27.7198 4.5V12.5ZM31.994 10.6994C33.1102 9.5595 33.7226 8.03105 33.7226 6.45455H25.7226C25.7226 5.96302 25.913 5.47511 26.278 5.1024L31.994 10.6994ZM33.7226 6.45455C33.7226 4.87805 33.1102 3.34959 31.994 2.20969L26.278 7.80669C25.913 7.43398 25.7226 6.94607 25.7226 6.45455H33.7226ZM31.994 2.20969C30.8751 1.06693 29.3393 0.409091 27.7198 0.409091V8.40909C27.1626 8.40909 26.6457 8.18226 26.278 7.80669L31.994 2.20969ZM6.34813 0.409091C5.548 0.409091 4.75776 0.570151 4.02328 0.880856L7.14008 8.24873C6.89159 8.35385 6.62223 8.40909 6.34813 8.40909V0.409091ZM4.02328 0.880856C3.28899 1.19148 2.62734 1.64444 2.07387 2.20969L7.78995 7.80669C7.60844 7.99206 7.38838 8.14369 7.14008 8.24873L4.02328 0.880856ZM2.07387 2.20969C1.52057 2.77476 1.08602 3.44105 0.791025 4.16839L8.20448 7.17517C8.11078 7.40619 7.97129 7.6215 7.78995 7.80669L2.07387 2.20969ZM0.791025 4.16839C0.496081 4.8956 0.345293 5.67219 0.345293 6.45455H8.34529C8.34529 6.69967 8.29812 6.9443 8.20448 7.17517L0.791025 4.16839ZM0.345293 6.45455C0.345293 7.2369 0.496081 8.01349 0.791025 8.7407L8.20448 5.73392C8.29812 5.96479 8.34529 6.20942 8.34529 6.45455H0.345293ZM0.791025 8.7407C1.08602 9.46804 1.52057 10.1343 2.07387 10.6994L7.78995 5.1024C7.97129 5.2876 8.11078 5.5029 8.20448 5.73392L0.791025 8.7407ZM2.07387 10.6994C2.62734 11.2646 3.28899 11.7176 4.02328 12.0282L7.14008 4.66036C7.38838 4.7654 7.60844 4.91703 7.78995 5.1024L2.07387 10.6994ZM4.02328 12.0282C4.75776 12.3389 5.548 12.5 6.34813 12.5V4.5C6.62223 4.5 6.89159 4.55525 7.14008 4.66036L4.02328 12.0282ZM6.34813 12.5C7.96769 12.5 9.50345 11.8422 10.6224 10.6994L4.90632 5.1024C5.27406 4.72684 5.79096 4.5 6.34813 4.5V12.5ZM10.6224 10.6994C11.7386 9.5595 12.351 8.03104 12.351 6.45455H4.35098C4.35098 5.96303 4.54137 5.47511 4.90632 5.1024L10.6224 10.6994ZM12.351 6.45455C12.351 4.87805 11.7386 3.34959 10.6224 2.20969L4.90632 7.80669C4.54137 7.43398 4.35098 6.94607 4.35098 6.45455H12.351ZM10.6224 2.20969C9.50345 1.06693 7.96769 0.409091 6.34813 0.409091V8.40909C5.79096 8.40909 5.27406 8.18226 4.90632 7.80669L10.6224 2.20969ZM9.5647 15.9091H12.6971V7.90909H9.5647V15.9091ZM8.47382 17.9545H9.86469V9.95455H8.47382V17.9545ZM13.6929 14.9773C13.6929 15.074 13.6766 15.1706 13.6446 15.2632L6.08481 12.6459C5.82744 13.3893 5.69288 14.177 5.69288 14.9773H13.6929ZM8.03159 21.6837L6.81417 22.3226L10.5314 29.4065L11.7488 28.7677L8.03159 21.6837ZM11.4327 31.2228L12.5954 30.5485L8.5816 23.6283L7.41894 24.3026L11.4327 31.2228ZM14.7022 26.0044C14.4708 25.7681 14.2743 25.499 14.1175 25.2053L7.05949 28.9715C7.5691 29.9265 8.21511 30.8139 8.98616 31.6014L14.7022 26.0044ZM13.787 24.3229C13.725 24.0556 13.6929 23.7792 13.6929 23.4986H5.69288C5.69288 24.3908 5.79516 25.2729 5.9934 26.1286L13.787 24.3229ZM21.3788 15.9091H24.5112V7.90909H21.3788V15.9091ZM24.2112 17.9545H25.6034V9.95455H24.2112V17.9545ZM20.4314 15.2632C20.3993 15.1706 20.383 15.074 20.383 14.9773H28.383C28.383 14.177 28.2485 13.3893 27.9911 12.6459L20.4314 15.2632ZM21.8567 30.9315L23.1012 31.4532L26.1936 24.075L24.9491 23.5534L21.8567 30.9315ZM27.1403 22.2635L25.9101 21.671L22.4384 28.8784L23.6687 29.471L27.1403 22.2635ZM20.383 23.4986C20.383 23.7873 20.349 24.0717 20.2835 24.3462L28.065 26.2032C28.2747 25.3243 28.383 24.4168 28.383 23.4986H20.383ZM19.9187 25.2777C19.7689 25.5433 19.5859 25.7876 19.3737 26.0044L25.0898 31.6014C25.797 30.8791 26.399 30.0728 26.8871 29.2072L19.9187 25.2777Z" fill="white" mask="url(#path-1-inside-1_384_466)"/>
</g>
<defs>
<filter id="filter0_f_384_466" x="0.914008" y="0.902778" width="32.2399" height="30.1944" filterUnits="userSpaceOnUse" color-interpolation-filters="sRGB">
<feFlood flood-opacity="0" result="BackgroundImageFix"/>
<feBlend mode="normal" in="SourceGraphic" in2="BackgroundImageFix" result="shape"/>
<feGaussianBlur stdDeviation="0.0486111" result="effect1_foregroundBlur_384_466"/>
</filter>
</defs>
</svg>
