<svg width="32" height="32" viewBox="0 0 32 32" fill="none" xmlns="http://www.w3.org/2000/svg">
<g filter="url(#filter0_f_384_468)">
<mask id="path-1-inside-1_384_468" fill="white">
<path d="M15.9138 7.42857C14.8543 7.42857 13.8185 7.74276 12.9376 8.33141C12.0566 8.92006 11.3699 9.75673 10.9645 10.7356C10.559 11.7145 10.4529 12.7917 10.6596 13.8308C10.8663 14.87 11.3765 15.8246 12.1258 16.5738C12.875 17.323 13.8295 17.8332 14.8687 18.0399C15.9079 18.2466 16.985 18.1405 17.9639 17.7351C18.9428 17.3296 19.7795 16.643 20.3681 15.762C20.9568 14.881 21.271 13.8453 21.271 12.7857C21.271 11.3649 20.7066 10.0023 19.7019 8.99764C18.6972 7.99298 17.3346 7.42857 15.9138 7.42857ZM15.9138 16C15.2781 16 14.6566 15.8115 14.1281 15.4583C13.5995 15.1051 13.1875 14.6031 12.9442 14.0158C12.7009 13.4284 12.6373 12.7821 12.7613 12.1586C12.8853 11.5351 13.1915 10.9624 13.641 10.5129C14.0905 10.0633 14.6632 9.75721 15.2867 9.63319C15.9103 9.50916 16.5565 9.57282 17.1439 9.8161C17.7312 10.0594 18.2332 10.4714 18.5864 11C18.9396 11.5285 19.1281 12.15 19.1281 12.7857C19.1273 13.6379 18.7883 14.455 18.1857 15.0576C17.5831 15.6602 16.766 15.9991 15.9138 16Z"/>
<path d="M15.9138 1C12.9471 1 10.047 1.87973 7.58027 3.52796C5.11353 5.17618 3.19095 7.51886 2.05563 10.2597C0.920318 13.0006 0.623268 16.0166 1.20205 18.9264C1.78082 21.8361 3.20944 24.5088 5.30722 26.6066C7.40501 28.7044 10.0778 30.133 12.9875 30.7118C15.8972 31.2906 18.9132 30.9935 21.6541 29.8582C24.395 28.7229 26.7376 26.8003 28.3859 24.3335C30.0341 21.8668 30.9138 18.9667 30.9138 16C30.9093 12.0231 29.3275 8.21047 26.5154 5.39841C23.7034 2.58635 19.8907 1.00454 15.9138 1ZM9.48525 27.1182V25.6429C9.4861 24.7906 9.82502 23.9736 10.4276 23.3709C11.0302 22.7683 11.8473 22.4294 12.6995 22.4286H19.1281C19.9803 22.4294 20.7974 22.7683 21.4 23.3709C22.0026 23.9736 22.3415 24.7906 22.3424 25.6429V27.1182C20.3915 28.2574 18.1729 28.8577 15.9138 28.8577C13.6547 28.8577 11.4361 28.2574 9.48525 27.1182ZM24.4767 25.5636C24.4553 24.1582 23.8827 22.8175 22.8823 21.8303C21.8819 20.8431 20.5336 20.2884 19.1281 20.2857H12.6995C11.294 20.2884 9.94579 20.8431 8.94535 21.8303C7.9449 22.8175 7.37232 24.1582 7.35097 25.5636C5.408 23.8287 4.03782 21.5445 3.42186 19.0136C2.8059 16.4826 2.97322 13.8243 3.90165 11.3906C4.83009 8.95683 6.47585 6.8625 8.62101 5.38489C10.7662 3.90728 13.3095 3.1161 15.9144 3.1161C18.5192 3.1161 21.0625 3.90728 23.2077 5.38489C25.3529 6.8625 26.9986 8.95683 27.9271 11.3906C28.8555 13.8243 29.0228 16.4826 28.4069 19.0136C27.7909 21.5445 26.4207 23.8287 24.4777 25.5636H24.4767Z"/>
</mask>
<path d="M21.271 12.7857H25.271H21.271ZM15.9138 16V20L15.9178 20L15.9138 16ZM19.1281 12.7857L23.1281 12.7897V12.7857H19.1281ZM15.9138 1L15.9184 -3H15.9138V1ZM30.9138 16H34.9138L34.9138 15.9954L30.9138 16ZM9.48525 27.1182H5.48525V29.4145L7.46828 30.5725L9.48525 27.1182ZM9.48525 25.6429L5.48525 25.6389V25.6429H9.48525ZM12.6995 22.4286V18.4286L12.6955 18.4286L12.6995 22.4286ZM19.1281 22.4286L19.1321 18.4286H19.1281V22.4286ZM22.3424 25.6429H26.3424L26.3424 25.6389L22.3424 25.6429ZM22.3424 27.1182L24.3594 30.5725L26.3424 29.4145V27.1182H22.3424ZM24.4767 25.5636L20.4771 25.6243L20.537 29.5636H24.4767V25.5636ZM19.1281 20.2857L19.1356 16.2857H19.1281V20.2857ZM12.6995 20.2857V16.2857L12.692 16.2857L12.6995 20.2857ZM7.35097 25.5636L4.6868 28.5472L11.2175 34.3786L11.3505 25.6243L7.35097 25.5636ZM24.4777 25.5636V29.5636H26.0037L27.1419 28.5472L24.4777 25.5636ZM15.9138 3.42857C14.0632 3.42857 12.254 3.97736 10.7153 5.00553L15.1598 11.6573C15.383 11.5082 15.6454 11.4286 15.9138 11.4286V3.42857ZM10.7153 5.00553C9.1765 6.03371 7.97717 7.49509 7.26895 9.20489L14.66 12.2664C14.7627 12.0184 14.9367 11.8064 15.1598 11.6573L10.7153 5.00553ZM7.26895 9.20489C6.56073 10.9147 6.37543 12.7961 6.73648 14.6112L14.5828 13.0505C14.5304 12.7872 14.5573 12.5143 14.66 12.2664L7.26895 9.20489ZM6.73648 14.6112C7.09752 16.4263 7.98871 18.0936 9.29732 19.4022L14.9542 13.7454C14.7644 13.5556 14.6351 13.3137 14.5828 13.0505L6.73648 14.6112ZM9.29732 19.4022C10.6059 20.7108 12.2732 21.602 14.0883 21.9631L15.6491 14.1168C15.3858 14.0644 15.144 13.9352 14.9542 13.7454L9.29732 19.4022ZM14.0883 21.9631C15.9034 22.3241 17.7849 22.1388 19.4946 21.4306L16.4332 14.0395C16.1852 14.1423 15.9123 14.1691 15.6491 14.1168L14.0883 21.9631ZM19.4946 21.4306C21.2044 20.7224 22.6658 19.523 23.694 17.9843L17.0422 13.5397C16.8931 13.7629 16.6812 13.9368 16.4332 14.0395L19.4946 21.4306ZM23.694 17.9843C24.7222 16.4455 25.271 14.6364 25.271 12.7857H17.271C17.271 13.0541 17.1914 13.3165 17.0422 13.5397L23.694 17.9843ZM25.271 12.7857C25.271 10.304 24.2851 7.92402 22.5303 6.16921L16.8735 11.8261C17.128 12.0806 17.271 12.4258 17.271 12.7857H25.271ZM22.5303 6.16921C20.7755 4.41441 18.3955 3.42857 15.9138 3.42857V11.4286C16.2738 11.4286 16.619 11.5716 16.8735 11.8261L22.5303 6.16921ZM15.9138 12C16.0692 12 16.2211 12.0461 16.3503 12.1324L11.9058 18.7842C13.0922 19.5769 14.487 20 15.9138 20V12ZM16.3503 12.1324C16.4796 12.2188 16.5803 12.3415 16.6397 12.485L9.24869 15.5465C9.79472 16.8647 10.7194 17.9915 11.9058 18.7842L16.3503 12.1324ZM16.6397 12.485C16.6992 12.6286 16.7148 12.7866 16.6844 12.939L8.83816 11.3783C8.55979 12.7777 8.70266 14.2283 9.24869 15.5465L16.6397 12.485ZM16.6844 12.939C16.6541 13.0914 16.5793 13.2314 16.4694 13.3413L10.8126 7.68444C9.80361 8.69338 9.11652 9.97884 8.83816 11.3783L16.6844 12.939ZM16.4694 13.3413C16.3595 13.4512 16.2195 13.526 16.0671 13.5563L14.5064 5.71005C13.107 5.98841 11.8215 6.6755 10.8126 7.68444L16.4694 13.3413ZM16.0671 13.5563C15.9147 13.5866 15.7567 13.5711 15.6131 13.5116L18.6746 6.12058C17.3564 5.57455 15.9058 5.43168 14.5064 5.71005L16.0671 13.5563ZM15.6131 13.5116C15.4696 13.4522 15.3469 13.3514 15.2605 13.2222L21.9123 8.77767C21.1196 7.59128 19.9928 6.66661 18.6746 6.12058L15.6131 13.5116ZM15.2605 13.2222C15.1742 13.093 15.1281 12.9411 15.1281 12.7857H23.1281C23.1281 11.3589 22.705 9.96406 21.9123 8.77767L15.2605 13.2222ZM15.1281 12.7817C15.1283 12.5745 15.2107 12.3757 15.3573 12.2292L21.0142 17.886C22.3659 16.5343 23.1262 14.7014 23.1281 12.7897L15.1281 12.7817ZM15.3573 12.2292C15.5039 12.0826 15.7026 12.0002 15.9098 12L15.9178 20C17.8295 19.9981 19.6624 19.2378 21.0142 17.886L15.3573 12.2292ZM15.9138 -3C12.156 -3 8.48252 -1.88567 5.35799 0.202077L9.80255 6.85383C11.6115 5.64514 13.7382 5 15.9138 5V-3ZM5.35799 0.202077C2.23346 2.28982 -0.201821 5.25722 -1.63989 8.72901L5.75115 11.7905C6.58371 9.78049 7.99361 8.06253 9.80255 6.85383L5.35799 0.202077ZM-1.63989 8.72901C-3.07795 12.2008 -3.45421 16.0211 -2.7211 19.7067L5.12519 18.146C4.70075 16.0122 4.91859 13.8005 5.75115 11.7905L-1.63989 8.72901ZM-2.7211 19.7067C-1.98798 23.3924 -0.178402 26.7778 2.4788 29.435L8.13565 23.7782C6.59727 22.2398 5.54962 20.2798 5.12519 18.146L-2.7211 19.7067ZM2.4788 29.435C5.13599 32.0922 8.52147 33.9018 12.2071 34.6349L13.7678 26.7886C11.634 26.3642 9.67403 25.3165 8.13565 23.7782L2.4788 29.435ZM12.2071 34.6349C15.8927 35.368 19.713 34.9918 23.1848 33.5537L20.1233 26.1627C18.1134 26.9952 15.9016 27.2131 13.7678 26.7886L12.2071 34.6349ZM23.1848 33.5537C26.6566 32.1156 29.624 29.6804 31.7117 26.5558L25.06 22.1113C23.8513 23.9202 22.1333 25.3301 20.1233 26.1627L23.1848 33.5537ZM31.7117 26.5558C33.7995 23.4313 34.9138 19.7578 34.9138 16H26.9138C26.9138 18.1756 26.2687 20.3023 25.06 22.1113L31.7117 26.5558ZM34.9138 15.9954C34.9081 10.9593 32.9049 6.13107 29.3438 2.56998L23.687 8.22684C25.75 10.2899 26.9105 13.087 26.9138 16.0046L34.9138 15.9954ZM29.3438 2.56998C25.7827 -0.991108 20.9545 -2.99425 15.9184 -3L15.9093 5C18.8268 5.00333 21.624 6.1638 23.687 8.22684L29.3438 2.56998ZM13.4853 27.1182V25.6429H5.48525V27.1182H13.4853ZM13.4853 25.6468C13.485 25.8541 13.4026 26.0528 13.2561 26.1994L7.59921 20.5425C6.24743 21.8943 5.48716 23.7272 5.48525 25.6389L13.4853 25.6468ZM13.2561 26.1994C13.1095 26.3459 12.9108 26.4284 12.7035 26.4286L12.6955 18.4286C10.7838 18.4305 8.95099 19.1907 7.59921 20.5425L13.2561 26.1994ZM12.6995 26.4286H19.1281V18.4286H12.6995V26.4286ZM19.1241 26.4286C18.9169 26.4284 18.7181 26.3459 18.5716 26.1994L24.2284 20.5425C22.8767 19.1907 21.0438 18.4305 19.1321 18.4286L19.1241 26.4286ZM18.5716 26.1994C18.425 26.0528 18.3426 25.8541 18.3424 25.6468L26.3424 25.6389C26.3405 23.7272 25.5802 21.8943 24.2284 20.5425L18.5716 26.1994ZM18.3424 25.6429V27.1182H26.3424V25.6429H18.3424ZM20.3254 23.664C18.9866 24.4457 17.4641 24.8577 15.9138 24.8577V32.8577C18.8817 32.8577 21.7964 32.069 24.3594 30.5725L20.3254 23.664ZM15.9138 24.8577C14.3635 24.8577 12.841 24.4457 11.5022 23.664L7.46828 30.5725C10.0313 32.069 12.9459 32.8577 15.9138 32.8577V24.8577ZM28.4762 25.5028C28.4389 23.0485 27.439 20.7071 25.6918 18.9831L20.0728 24.6775C20.3265 24.9278 20.4717 25.2679 20.4771 25.6243L28.4762 25.5028ZM25.6918 18.9831C23.9447 17.259 21.5902 16.2903 19.1356 16.2857L19.1206 24.2857C19.4771 24.2864 19.819 24.4271 20.0728 24.6775L25.6918 18.9831ZM19.1281 16.2857H12.6995V24.2857H19.1281V16.2857ZM12.692 16.2857C10.2374 16.2903 7.88295 17.259 6.1358 18.9831L11.7549 24.6775C12.0086 24.4271 12.3506 24.2864 12.7071 24.2857L12.692 16.2857ZM6.1358 18.9831C4.38866 20.7071 3.38872 23.0485 3.35143 25.5028L11.3505 25.6243C11.3559 25.2679 11.5011 24.9278 11.7549 24.6775L6.1358 18.9831ZM10.0151 22.5799C8.67665 21.3847 7.73274 19.8112 7.30842 18.0677L-0.464694 19.9594C0.342898 23.2778 2.13935 26.2726 4.6868 28.5472L10.0151 22.5799ZM7.30842 18.0677C6.88409 16.3242 6.99935 14.4929 7.63894 12.8163L0.164364 9.96484C-1.05292 13.1557 -1.27229 16.6411 -0.464694 19.9594L7.30842 18.0677ZM7.63894 12.8163C8.27853 11.1397 9.41227 9.69695 10.8901 8.67905L6.35196 2.09074C3.53942 4.02805 1.38165 6.77394 0.164364 9.96484L7.63894 12.8163ZM10.8901 8.67905C12.3678 7.66114 14.1199 7.1161 15.9144 7.1161V-0.883901C12.4992 -0.883901 9.16451 0.153431 6.35196 2.09074L10.8901 8.67905ZM15.9144 7.1161C17.7088 7.1161 19.4609 7.66114 20.9387 8.67905L25.4768 2.09074C22.6642 0.153431 19.3296 -0.883901 15.9144 -0.883901V7.1161ZM20.9387 8.67905C22.4164 9.69695 23.5502 11.1397 24.1898 12.8163L31.6644 9.96484C30.4471 6.77394 28.2893 4.02805 25.4768 2.09074L20.9387 8.67905ZM24.1898 12.8163C24.8294 14.4929 24.9446 16.3242 24.5203 18.0677L32.2934 19.9594C33.101 16.6411 32.8816 13.1557 31.6644 9.96484L24.1898 12.8163ZM24.5203 18.0677C24.096 19.8112 23.1521 21.3847 21.8136 22.5799L27.1419 28.5472C29.6894 26.2726 31.4858 23.2778 32.2934 19.9594L24.5203 18.0677ZM24.4777 21.5636H24.4767V29.5636H24.4777V21.5636Z" fill="white" mask="url(#path-1-inside-1_384_468)"/>
</g>
<defs>
<filter id="filter0_f_384_468" x="0.816596" y="0.902778" width="30.1944" height="30.1944" filterUnits="userSpaceOnUse" color-interpolation-filters="sRGB">
<feFlood flood-opacity="0" result="BackgroundImageFix"/>
<feBlend mode="normal" in="SourceGraphic" in2="BackgroundImageFix" result="shape"/>
<feGaussianBlur stdDeviation="0.0486111" result="effect1_foregroundBlur_384_468"/>
</filter>
</defs>
</svg>
